<?xml version="1.0" encoding="UTF-8"?>
<svg width="27" height="27" viewBox="0 0 27 27" fill="none" xmlns="http://www.w3.org/2000/svg">
<path fill-rule="evenodd" clip-rule="evenodd" d="M18.5 11C18.5 15.1421 15.1421 18.5 11 18.5C6.85786 18.5 3.5 15.1421 3.5 11C3.5 6.85786 6.85786 3.5 11 3.5C15.1421 3.5 18.5 6.85786 18.5 11ZM17.2883 19.4096C15.5354 20.7224 13.3585 21.5 11 21.5C5.20101 21.5 0.5 16.799 0.5 11C0.5 5.20101 5.20101 0.5 11 0.5C16.799 0.5 21.5 5.20101 21.5 11C21.5 13.3585 20.7224 15.5354 19.4096 17.2883L26.3857 24.2643C26.9714 24.8501 26.9714 25.7999 26.3857 26.3857C25.7999 26.9714 24.8501 26.9714 24.2643 26.3857L17.2883 19.4096Z" fill="white" fill-opacity="0.6"/>
</svg> 